<svg width="41" height="36" viewBox="0 0 41 36" fill="none" xmlns="http://www.w3.org/2000/svg">
<path d="M4.22083 7.81017L6.35416 5.95809L9.22082 8.46642L9.68749 8.87476L11.3542 10.3331L14.6875 13.2498L27.5542 24.5081L30.8875 27.4248L34.2208 30.3414L32.1042 32.2081L29.6708 30.0789C29.1042 30.5018 28.3875 30.7498 27.5542 30.7498H14.2208C12.3875 30.7498 10.8875 29.4373 10.8875 27.8331V13.6435L4.22083 7.81017ZM14.2208 27.8331H27.1042L14.2208 16.5602V27.8331ZM30.8875 10.3331V23.7206L27.5542 20.8039V13.2498H18.9208L15.5875 10.3331H30.8875ZM26.7208 5.95809H32.5542V8.87476H13.9208L10.5875 5.95809H15.0542L16.7208 4.49976H25.0542L26.7208 5.95809Z" fill="black"/>
</svg>
